<!-- Placeholder SVG para accesorio goma -->
<svg xmlns="http://www.w3.org/2000/svg" width="400" height="300" viewBox="0 0 400 300">
  <rect width="400" height="300" fill="#f8fafc"/>
  <rect x="20" y="20" width="360" height="260" fill="white" stroke="#e2e8f0" stroke-width="2" rx="10"/>
  
  <!-- Goma/manguera -->
  <path d="M120 100 Q200 80 280 100" stroke="#1f2937" stroke-width="8" fill="none" stroke-linecap="round"/>
  <path d="M120 120 Q200 140 280 120" stroke="#1f2937" stroke-width="8" fill="none" stroke-linecap="round"/>
  <path d="M120 140 Q200 120 280 140" stroke="#1f2937" stroke-width="8" fill="none" stroke-linecap="round"/>
  
  <!-- Conectores -->
  <circle cx="120" cy="120" r="12" fill="#374151"/>
  <circle cx="280" cy="120" r="12" fill="#374151"/>
  <circle cx="120" cy="120" r="6" fill="#6b7280"/>
  <circle cx="280" cy="120" r="6" fill="#6b7280"/>
  
  <!-- Detalles -->
  <rect x="108" y="108" width="24" height="24" fill="none" stroke="#9ca3af" stroke-width="2" rx="4"/>
  <rect x="268" y="108" width="24" height="24" fill="none" stroke="#9ca3af" stroke-width="2" rx="4"/>
  
  <text x="200" y="180" font-family="Arial" font-size="16" fill="#374151" text-anchor="middle" font-weight="bold">Accesorio Goma</text>
  <text x="200" y="200" font-family="Arial" font-size="12" fill="#6b7280" text-anchor="middle">Conexión resistente</text>
  
  <rect x="150" y="220" width="100" height="30" fill="#dc2626" rx="15"/>
  <text x="200" y="240" font-family="Arial" font-size="14" fill="white" text-anchor="middle" font-weight="bold">$990</text>
</svg>