<!-- Placeholder SVG para carbón 5 kilos -->
<svg xmlns="http://www.w3.org/2000/svg" width="400" height="300" viewBox="0 0 400 300">
  <rect width="400" height="300" fill="#f8fafc"/>
  <rect x="20" y="20" width="360" height="260" fill="white" stroke="#e2e8f0" stroke-width="2" rx="10"/>
  
  <!-- Saco de carbón más grande -->
  <rect x="140" y="60" width="120" height="150" fill="#7c3aed" stroke="#6d28d9" stroke-width="2" rx="10"/>
  
  <!-- Etiqueta del saco -->
  <rect x="155" y="80" width="90" height="50" fill="white" stroke="#d1d5db" stroke-width="1" rx="5"/>
  <text x="200" y="105" font-family="Arial" font-size="16" fill="#374151" text-anchor="middle" font-weight="bold">CARBÓN</text>
  <text x="200" y="125" font-family="Arial" font-size="14" fill="#6b7280" text-anchor="middle" font-weight="bold">5 KILOS</text>
  
  <!-- Detalles del saco -->
  <circle cx="160" cy="150" r="4" fill="#374151" opacity="0.6"/>
  <circle cx="180" cy="160" r="3" fill="#374151" opacity="0.6"/>
  <circle cx="200" cy="145" r="4" fill="#374151" opacity="0.6"/>
  <circle cx="220" cy="165" r="3" fill="#374151" opacity="0.6"/>
  <circle cx="240" cy="155" r="4" fill="#374151" opacity="0.6"/>
  <circle cx="170" cy="180" r="3" fill="#374151" opacity="0.6"/>
  <circle cx="210" cy="185" r="4" fill="#374151" opacity="0.6"/>
  <circle cx="230" cy="175" r="3" fill="#374151" opacity="0.6"/>
  
  <!-- Costura del saco -->
  <line x1="145" y1="65" x2="255" y2="65" stroke="#5b21b6" stroke-width="2"/>
  <line x1="145" y1="205" x2="255" y2="205" stroke="#5b21b6" stroke-width="2"/>
  
  <text x="200" y="230" font-family="Arial" font-size="16" fill="#374151" text-anchor="middle" font-weight="bold">Carbón 5 Kilos</text>
  <text x="200" y="250" font-family="Arial" font-size="12" fill="#6b7280" text-anchor="middle">Mayor duración</text>
  
  <rect x="150" y="260" width="100" height="25" fill="#5b21b6" rx="12"/>
  <text x="200" y="277" font-family="Arial" font-size="12" fill="white" text-anchor="middle" font-weight="bold">$4.990</text>
</svg>